<?xml version="1.0" encoding="utf-8"?>
<!-- Generator: Adobe Illustrator 16.0.0, SVG Export Plug-In . SVG Version: 6.00 Build 0)  -->
<!DOCTYPE svg PUBLIC "-//W3C//DTD SVG 1.1//EN" "http://www.w3.org/Graphics/SVG/1.1/DTD/svg11.dtd">
<svg version="1.1" id="Layer_1" xmlns="http://www.w3.org/2000/svg" xmlns:xlink="http://www.w3.org/1999/xlink" x="0px" y="0px"
	 width="100px" height="100px" viewBox="0 0 100 100" enable-background="new 0 0 100 100" xml:space="preserve">
<g>
	<path fill-rule="evenodd" clip-rule="evenodd" d="M74.528,82.674c-0.753,0-1.507,0-2.26,0c-0.596-0.061-1.192-0.113-1.788-0.184
		c-1.986-0.231-3.974-0.449-5.957-0.716c-0.673-0.091-1.356-0.239-1.987-0.486c-2.577-1.013-5.21-1.75-8.005-1.747
		c-0.5,0-1.003,0.109-1.497,0.072c-0.952-0.075-1.898-0.229-2.849-0.328c-1.06-0.111-2.156-0.059-3.174-0.321
		c-1.988-0.514-3.931-1.204-5.896-1.81c-0.493-0.151-1.001-0.257-1.502-0.385c-1.283-0.326-2.589-0.586-3.844-1.001
		c-1.018-0.336-1.967-0.876-2.96-1.296c-1.341-0.564-2.677-1.147-4.046-1.635c-1.563-0.558-3.167-0.997-4.736-1.534
		c-1-0.342-1.979-0.747-2.95-1.167c-2.122-0.915-4.23-1.857-6.345-2.788c0-0.084,0-0.168,0-0.253
		c0.168-0.996,0.341-1.992,0.503-2.991c0.214-1.316,0.406-2.638,0.637-3.952c0.072-0.414,0.232-0.809,0.757-0.861
		c0.646-0.063,0.975-0.479,1.146-1.063c0.277-0.945,0.911-1.514,1.863-1.729c0.385-0.086,0.775-0.149,1.167-0.206
		c1.317-0.19,2.635-0.373,3.966-0.559c0-1.122-0.013-2.223,0.003-3.322c0.032-2.323-0.019-4.651,0.152-6.963
		c0.128-1.735,0.538-3.443,0.381-5.21c-0.05-0.561,0.023-1.211,0.273-1.7c0.32-0.625,0.457-1.235,0.466-1.91
		c0.002-0.137,0.034-0.306,0.118-0.403c0.559-0.641,1.137-1.268,1.708-1.899c0.399-0.441,0.832-0.859,1.185-1.335
		c0.205-0.278,0.342-0.44,0.736-0.374c0.661,0.113,1.241-0.053,1.766-0.561c0.417-0.404,0.989-0.644,1.484-0.969
		c0.153-0.1,0.323-0.212,0.411-0.362c0.292-0.497,0.55-1.013,0.817-1.515c-0.938-1.161-0.724-2.549-0.812-3.961
		c-0.176,0.423-0.328,0.783-0.522,1.248c-0.243-1.124-0.004-4.212,0.231-5.893c0.153-1.095,1.001-1.479,1.687-1.982
		c0.789-0.579,1.736-0.942,2.613-1.399c0.419,0,0.838,0,1.256,0c0.136,0.039,0.27,0.089,0.408,0.115
		c1.119,0.216,2.246,0.407,3.358,0.654c0.287,0.064,0.61,0.244,0.788,0.472c0.936,1.2,1.884,2.396,2.709,3.67
		c0.332,0.512,0.396,1.213,0.515,1.841c0.091,0.476-0.207,0.741-0.672,0.762c-0.344,0.015-0.69-0.033-0.995-0.049
		c-0.245,0.974-0.018,1.758,0.817,2.341c0.479,0.334,0.188,0.653-0.108,0.91c-1.451,1.256-1.784,3.16-2.851,4.707
		c0.4,0.062,0.689,0.106,0.978,0.152c0.786,0.126,1.486,0.375,2.126,0.92c1.428,1.213,2.951,2.313,4.39,3.511
		c1.324,1.101,2.916,1.479,4.525,1.85c1.192,0.276,2.426,0.445,3.572,0.855c2.098,0.75,4.131,1.676,6.218,2.457
		c0.625,0.235,1.35,0.361,2.012,0.311c1.786-0.136,3.425,0.369,5.06,0.952c0.134,0.048,0.268,0.167,0.344,0.29
		c0.136,0.218,0.193,0.487,0.344,0.691c0.516,0.7,0.238,1.561-0.62,1.58c-0.937,0.021-1.678,0.563-2.555,0.714
		c-0.509,0.087-0.899,0.335-0.568,1.081c-0.478-0.168-0.833-0.273-1.171-0.418c-0.338-0.144-0.657-0.325-1.02-0.507
		c-0.519,0.931-1.092,1.73-0.645,2.852c0.214,0.535,0.153,1.181,0.219,1.814c-0.186-0.027-0.268-0.032-0.347-0.053
		c-0.563-0.146-0.89-0.028-1.092,0.613c-0.37,1.169-0.889,2.291-1.306,3.445c-0.255,0.703-0.473,1.424-0.641,2.151
		c-0.172,0.742-0.085,1.449,0.538,2.005c0.375,0.335,0.765,0.667,1.07,1.061c0.668,0.865,1.594,0.816,2.482,0.676
		c0.447-0.07,0.907-0.404,1.25-0.732c0.736-0.706,0.746-1.736,1.005-2.646c0.391-1.378,0.578-2.824,1.453-4.041
		c1.184,0.222,2.364,0.386,3.086,1.563c0.791,1.299,1.41,2.629,1.317,4.264c0.214,0.033,0.478,0.085,0.742,0.114
		c1.104,0.117,2.398,1.339,2.532,2.423c0.2,1.642,0.117,3.267-0.609,4.774c-0.444,0.923-0.202,1.72,0.205,2.525
		c0.206,0.406,0.481,0.777,0.712,1.172c1.131,1.936,1.592,4.098,2.195,6.224c0.56,1.974-0.131,3.414-1.52,4.688
		c-0.094,0.086-0.253,0.177-0.364,0.157C77.193,81.886,75.858,82.241,74.528,82.674z"/>
</g>
</svg>
