<?xml version="1.0" encoding="utf-8"?>
<!-- Generator: Adobe Illustrator 16.0.0, SVG Export Plug-In . SVG Version: 6.00 Build 0)  -->
<!DOCTYPE svg PUBLIC "-//W3C//DTD SVG 1.1//EN" "http://www.w3.org/Graphics/SVG/1.1/DTD/svg11.dtd">
<svg version="1.1" id="Layer_1" xmlns="http://www.w3.org/2000/svg" xmlns:xlink="http://www.w3.org/1999/xlink" x="0px" y="0px"
	 width="100px" height="100px" viewBox="0 0 100 100" enable-background="new 0 0 100 100" xml:space="preserve">
<image display="none" overflow="visible" width="800" height="535" xlink:href="test_1.jpg"  transform="matrix(0.125 0 0 0.125 0 0.4063)">
</image>
<g>
	<path d="M74.62,82.774c-0.754,0-1.51,0-2.264,0c-0.597-0.06-1.193-0.113-1.79-0.182c-1.989-0.234-3.981-0.451-5.966-0.718
		c-0.674-0.093-1.36-0.241-1.99-0.488c-2.582-1.014-5.219-1.752-8.016-1.751c-0.502,0.002-1.005,0.113-1.501,0.073
		c-0.954-0.074-1.903-0.231-2.856-0.329c-1.059-0.111-2.157-0.058-3.177-0.32c-1.993-0.517-3.936-1.207-5.904-1.813
		c-0.494-0.153-1.002-0.257-1.505-0.384c-1.285-0.327-2.593-0.587-3.849-1.003c-1.02-0.337-1.971-0.879-2.966-1.297
		c-1.342-0.565-2.68-1.15-4.051-1.64c-1.564-0.559-3.171-0.997-4.744-1.536c-1.001-0.342-1.982-0.748-2.955-1.168
		c-2.124-0.916-4.236-1.861-6.354-2.795c0-0.083,0-0.166,0-0.251c0.169-0.999,0.342-1.997,0.505-2.997
		c0.214-1.319,0.407-2.643,0.637-3.958c0.072-0.414,0.231-0.812,0.758-0.861c0.65-0.063,0.977-0.482,1.147-1.064
		c0.279-0.948,0.914-1.515,1.866-1.732c0.386-0.088,0.777-0.151,1.169-0.208c1.319-0.19,2.64-0.373,3.972-0.558
		c0-1.127-0.013-2.229,0.002-3.333c0.035-2.365-0.014-4.739,0.162-7.097c0.123-1.653,0.512-3.279,0.375-4.966
		c-0.05-0.623,0.143-1.273,0.271-1.9c0.12-0.578,0.305-1.144,0.459-1.714c0.046-0.177,0.026-0.404,0.132-0.527
		c0.553-0.65,1.135-1.271,1.708-1.903c0.399-0.442,0.834-0.86,1.186-1.341c0.207-0.279,0.35-0.434,0.739-0.369
		c0.664,0.113,1.243-0.06,1.767-0.563c0.419-0.403,0.992-0.645,1.488-0.969c0.154-0.1,0.323-0.214,0.411-0.364
		c0.291-0.497,0.548-1.016,0.813-1.514c-0.928-1.165-0.73-2.553-0.808-3.977c-0.182,0.437-0.331,0.795-0.483,1.156
		c-0.052-0.013-0.105-0.024-0.159-0.038c0-0.827,0.061-1.658-0.012-2.478c-0.124-1.369,0.271-2.649,0.523-3.958
		c0.021-0.105,0.104-0.228,0.195-0.292c0.567-0.405,1.135-0.814,1.72-1.196c1.279-0.837,2.601-1.513,4.218-1.103
		c1.085,0.273,2.186,0.488,3.273,0.757c0.208,0.052,0.436,0.197,0.565,0.367c0.926,1.212,1.877,2.406,2.71,3.679
		c0.323,0.496,0.393,1.174,0.51,1.782c0.108,0.545-0.222,0.813-0.742,0.828c-0.323,0.01-0.65-0.045-0.95-0.069
		c-0.104,0.876-0.168,1.691,0.712,2.229c0.556,0.339,0.403,0.721-0.024,1.092c-1.432,1.242-1.749,3.132-2.809,4.658
		c0.384,0.063,0.652,0.112,0.922,0.15c0.834,0.118,1.567,0.394,2.238,0.97c1.408,1.207,2.922,2.292,4.349,3.476
		c1.326,1.102,2.917,1.483,4.532,1.852c1.194,0.273,2.429,0.446,3.577,0.856c2.08,0.744,4.098,1.664,6.167,2.438
		c0.646,0.241,1.391,0.382,2.073,0.331c1.789-0.13,3.43,0.372,5.066,0.956c0.134,0.048,0.265,0.169,0.342,0.292
		c0.146,0.235,0.22,0.521,0.384,0.743c0.47,0.633,0.2,1.491-0.602,1.515c-0.94,0.026-1.69,0.545-2.562,0.71
		c-0.488,0.094-1.024,0.269-0.596,1.159c-0.841-0.356-1.505-0.636-2.233-0.944c-0.49,0.848-1.075,1.628-0.651,2.754
		c0.211,0.563,0.169,1.225,0.245,1.867c-1.154-0.16-1.152-0.16-1.52,0.813c-0.081,0.215-0.174,0.426-0.25,0.643
		c-0.538,1.532-1.101,3.056-1.598,4.601c-0.266,0.829-0.102,1.606,0.594,2.222c0.345,0.303,0.708,0.605,0.985,0.967
		c0.67,0.869,1.599,0.816,2.487,0.675c0.448-0.07,0.908-0.404,1.251-0.734c0.736-0.708,0.748-1.737,1.004-2.651
		c0.392-1.377,0.58-2.825,1.456-4.043c1.188,0.221,2.37,0.385,3.091,1.563c0.793,1.302,1.416,2.634,1.32,4.27
		c0.216,0.034,0.479,0.087,0.745,0.116c1.105,0.118,2.402,1.341,2.535,2.428c0.201,1.646,0.116,3.271-0.612,4.78
		c-0.444,0.924-0.2,1.724,0.208,2.53c0.206,0.407,0.483,0.777,0.715,1.174c1.13,1.938,1.592,4.104,2.197,6.233
		c0.56,1.977-0.132,3.418-1.521,4.694c-0.093,0.084-0.256,0.178-0.366,0.158C77.29,81.986,75.952,82.343,74.62,82.774z
		 M48.552,42.746c-0.574,0.563-0.922,0.589-1.696,0.078c-0.372-0.246-0.757-0.47-1.185-0.733c-0.103,0.464-0.212,0.908-0.298,1.356
		c-0.2,1.069,0.073,1.381,1.162,1.325c0.186-0.007,0.373-0.044,0.556-0.088c1.098-0.266,2.042-0.112,2.75,0.889
		c0.222,0.317,0.577,0.543,0.888,0.791c0.432,0.347,1.114,0.471,1.04,1.257c-0.008,0.088,0.198,0.195,0.302,0.299
		c0.372,0.369,0.766,0.716,1.108,1.11c0.657,0.758,1.271,1.556,1.929,2.307c0.42,0.479,1.137,0.542,1.693,0.22
		c1.356-0.779,2.716-1.56,4.075-2.33c0.216-0.122,0.462-0.188,0.689-0.295c0.287-0.132,0.571-0.277,0.859-0.417
		c0.246-0.116,0.49-0.309,0.741-0.319c0.352-0.017,0.708,0.135,1.064,0.158c0.188,0.012,0.478-0.036,0.558-0.162
		c0.211-0.328,0.36-0.701,0.48-1.076c0.044-0.144-0.004-0.388-0.107-0.496c-0.701-0.749-1.479-1.349-2.611-1.074
		c-0.1,0.025-0.205,0.052-0.308,0.054c-1.13,0.015-2.294,0.208-3.38-0.006c-2.032-0.396-4.022-1.021-6.024-1.571
		c-0.418-0.115-0.802-0.357-1.221-0.476C50.617,43.265,49.607,43.02,48.552,42.746z M47.831,49.487
		c-0.35-0.274-0.554-0.54-0.811-0.608c-0.368-0.098-0.789-0.246-1.081,0.289c-0.136,0.247-0.525,0.438-0.83,0.492
		c-0.534,0.093-0.727,0.4-0.811,0.87c-0.194,1.097-0.415,2.187-0.579,3.285c-0.05,0.34,0.019,0.705,0.08,1.049
		c0.022,0.13,0.177,0.236,0.272,0.355c0.11-0.108,0.204-0.247,0.333-0.32c0.287-0.166,0.583-0.385,0.893-0.413
		c0.152-0.015,0.405,0.308,0.5,0.526c0.098,0.233,0.115,0.533,0.068,0.783c-0.09,0.468,0.144,0.635,0.528,0.652
		c0.264,0.011,0.547-0.03,0.8-0.114c2.195-0.722,4.383-1.464,6.576-2.184c0.296-0.098,0.615-0.125,0.958-0.19
		c-0.494-0.701-0.448-0.697-0.398-1.466c0.022-0.313-0.132-0.702-0.333-0.958c-0.604-0.77-1.247-1.514-1.913-2.231
		c-0.666-0.715-1.789-0.441-2.154,0.479c-0.071,0.178-0.233,0.318-0.287,0.389C48.934,49.904,48.324,49.675,47.831,49.487z
		 M60.948,58.297c0.065-0.04,0.13-0.083,0.197-0.125c0.161-0.624,0.273-1.258,0.489-1.858c0.576-1.608,1.197-3.197,1.796-4.797
		c0.182-0.485,0.354-0.973,0.527-1.462c0.097-0.271,0.333-0.621,0.242-0.802c-0.183-0.354-0.587-0.423-0.987-0.238
		c-0.729,0.34-1.464,0.67-2.188,1.019c-1.016,0.494-2.032,0.981-3.027,1.512c-0.586,0.312-1.135,0.697-1.722,1.063
		C57.914,54.602,59.431,56.45,60.948,58.297z"/>
</g>
</svg>
